<svg width="100" height="100" viewBox="0 0 100 100" fill="none" xmlns="http://www.w3.org/2000/svg">
<path d="M85.3107 0H14.6893C6.57661 0 0 6.57661 0 14.6893V85.3107C0 93.4234 6.57661 100 14.6893 100H85.3107C93.4234 100 100 93.4234 100 85.3107V14.6893C100 6.57661 93.4234 0 85.3107 0Z" fill="url(#paint0_radial_74_1420)"/>
<g opacity="0.5">
<mask id="mask0_74_1420" style="mask-type:alpha" maskUnits="userSpaceOnUse" x="0" y="0" width="100" height="100">
<path d="M100 85.3107L100 14.6893C100 6.57661 93.4234 -2.87473e-07 85.3107 -6.42088e-07L14.6893 -3.72905e-06C6.57664 -4.08366e-06 4.54889e-05 6.5766 4.51343e-05 14.6893L4.20473e-05 85.3107C4.16927e-05 93.4234 6.57664 100 14.6893 100L85.3107 100C93.4234 100 100 93.4234 100 85.3107Z" fill="url(#paint1_radial_74_1420)"/>
</mask>
<g mask="url(#mask0_74_1420)">
<g style="mix-blend-mode:color-burn" opacity="0.7">
<path d="M102.902 49.1442C109.031 17.5503 88.6858 -12.9726 57.459 -19.0308C26.2322 -25.0889 -4.05094 -4.38819 -10.1803 27.2057C-16.3097 58.7995 4.03581 89.3225 35.2626 95.3806C66.4894 101.439 96.7726 80.738 102.902 49.1442Z" fill="url(#paint2_linear_74_1420)"/>
<path d="M-2.70049 66.171C10.1546 76.5299 27.5811 80.8117 45.4325 76.309C77.1501 68.3034 98.2282 35.612 92.5006 3.29407C91.7636 -0.861164 90.6182 -4.80265 89.125 -8.50775C99.0843 -0.450639 106.293 11.2594 108.799 25.3878C110.16 33.0695 110.011 40.7674 108.556 48.1496C103.914 71.8463 85.9198 92.3051 61.7314 98.4027C34.0919 105.378 7.48115 91.2942 -2.69558 66.174L-2.70049 66.171Z" fill="url(#paint3_linear_74_1420)"/>
<path d="M-3.01572 51.3556C1.88827 67.0196 13.9195 80.1825 31.1623 86.3164C61.7966 97.2198 97.2671 81.8426 110.393 51.9732C112.078 48.1385 113.306 44.2466 114.119 40.3527C117.899 52.5119 117.389 66.1694 111.657 79.2252C108.541 86.3245 104.167 92.6021 98.8849 97.9029C81.9608 114.921 55.7909 121.891 32.4347 113.571C5.73885 104.065 -8.47549 77.7293 -3.0098 51.3529L-3.01572 51.3556Z" fill="url(#paint4_linear_74_1420)"/>
</g>
</g>
</g>
<mask id="mask1_74_1420" style="mask-type:alpha" maskUnits="userSpaceOnUse" x="0" y="0" width="100" height="100">
<path d="M85.3107 0H14.6893C6.57661 0 0 6.57661 0 14.6893V85.3107C0 93.4234 6.57661 100 14.6893 100H85.3107C93.4234 100 100 93.4234 100 85.3107V14.6893C100 6.57661 93.4234 0 85.3107 0Z" fill="url(#paint5_radial_74_1420)"/>
</mask>
<g mask="url(#mask1_74_1420)">
<g filter="url(#filter0_d_74_1420)">
<path d="M52.1148 84C47.5475 84 43.1316 82.5937 39.4511 80.0422C31.7115 79.874 24.5596 75.6908 20.6844 69.0384C18.3665 65.1164 17.368 60.6111 17.7573 56.1595C14.0552 49.5179 14.0299 41.3447 17.9916 34.5456C20.2771 30.5914 23.7305 27.4781 27.8256 25.5851C31.7909 19.1009 38.9248 15 46.8373 15H46.895C51.4551 15 55.8674 16.3992 59.5479 18.9435C67.2838 19.1081 74.4394 23.2842 78.3182 29.9329C80.6361 33.8693 81.6346 38.3853 81.2417 42.8405C84.951 49.4893 84.969 57.6589 80.9929 64.458C78.7183 68.4122 75.2721 71.5219 71.1734 73.4185C67.2045 79.8991 60.0706 84 52.1616 84H52.1112H52.1148Z" fill="url(#paint6_linear_74_1420)"/>
</g>
<path d="M65.2966 52.4437C65.2915 52.6387 65.2863 52.8286 65.2709 53.0235C65.1889 54.0856 64.8863 55.081 64.4144 55.9738C64.0759 56.61 63.6553 57.1898 63.1629 57.7028C62.9629 57.9081 62.7526 58.1031 62.532 58.2878C61.5267 59.119 60.306 59.6936 58.9673 59.9194C58.916 59.9348 58.8647 59.9399 58.8134 59.9502C58.4442 60.0015 58.0543 60.0322 57.6645 60.0322C57.2337 60.0322 56.8131 59.9912 56.3977 59.9245C56.3412 59.9142 56.2848 59.904 56.2335 59.8886C55.7822 59.8065 55.3462 59.6782 54.9307 59.5089C54.7153 59.4319 54.5102 59.3396 54.305 59.237C53.5767 58.8727 52.9202 58.4006 52.3508 57.8363C52.2944 57.7798 52.238 57.7234 52.1816 57.6618C50.8737 56.297 50.0735 54.4448 50.0838 52.3976C50.0838 50.9404 50.5044 49.5807 51.2173 48.4263C51.4122 48.1082 51.6328 47.8055 51.8738 47.5233C52.6483 46.5946 53.6433 45.8609 54.7769 45.3991C55.6283 45.04 56.5567 44.8399 57.5312 44.8193C57.5927 44.8193 57.6492 44.8193 57.7107 44.8193C58.2903 44.8193 58.8596 44.886 59.4033 45.0143C60.9061 45.3581 62.2397 46.1482 63.2501 47.2411C64.4606 48.5392 65.2299 50.2631 65.2915 52.1667C65.2966 52.259 65.2966 52.3565 65.2966 52.4489V52.4437Z" fill="white"/>
<path fill-rule="evenodd" clip-rule="evenodd" d="M47.5879 76.7403C47.4773 76.6998 47.3672 76.6578 47.2576 76.6145C46.7018 76.398 46.1635 76.1464 45.6427 75.8538C44.3613 75.1576 43.1911 74.2448 42.1789 73.1565C42.1164 73.0985 42.0608 73.0371 42.0067 72.9775C41.9899 72.9589 41.9732 72.9405 41.9565 72.9224C35.9767 74.1804 29.8564 71.4655 26.8197 66.1819C24.7952 62.7532 24.3622 58.6106 25.6319 54.8308C21.5303 50.3137 20.834 43.6844 23.8941 38.4184C25.8776 34.9487 29.2596 32.5029 33.1798 31.6954C35.0698 25.9145 40.4879 22.0001 46.5848 22.0001C50.5811 21.9826 54.396 23.6736 57.0641 26.6518C63.0323 25.3879 69.1467 28.1029 72.1893 33.3689C74.2079 36.8152 74.6409 40.9578 73.377 44.7434V44.761C77.4728 49.2781 78.1691 55.9074 75.0914 61.1734C74.0499 63.0106 72.6105 64.567 70.8962 65.7314C70.6212 65.9245 70.3344 66.1059 70.0419 66.2697C68.7488 67.0303 67.3211 67.5804 65.8232 67.8905C64.4892 71.9687 61.4056 75.1166 57.5615 76.6145C55.9524 77.2464 54.2146 77.5858 52.4183 77.5858C52.379 77.5859 52.3398 77.5859 52.3006 77.5857C52.2761 77.5858 52.2516 77.5859 52.2272 77.5859C50.6323 77.5859 49.0653 77.301 47.5879 76.7403ZM59.9546 29.9752C58.8136 29.9811 57.6902 30.1683 56.6194 30.5311C55.9758 30.7476 55.3556 31.0284 54.7588 31.3736L44.0161 37.57V43.0642L57.029 35.5747C57.5966 35.2529 58.2928 35.2529 58.8546 35.5747L60.9258 36.7742H60.9376L69.9541 41.9759L69.9738 41.9863C70.072 42.0382 70.2047 42.1083 70.2759 42.1631C70.6914 39.77 70.2408 37.3067 69.0355 35.2003C67.1631 31.9587 63.6993 29.9694 59.9546 29.9752ZM36.2809 34.3811C36.1932 34.9253 36.1464 35.4753 36.1464 36.0428V48.4296L40.9209 51.1738V36.195C40.9209 35.5338 41.2602 34.9311 41.8278 34.6151L52.9274 28.2316C52.976 28.206 53.0326 28.1736 53.0871 28.1424C53.1572 28.1023 53.224 28.0641 53.2667 28.0443C51.3768 26.4762 49.0188 25.6337 46.5672 25.6337L46.5848 25.6161C41.3773 25.622 37.0708 29.4194 36.2809 34.3811ZM32.5011 35.6625C30.2075 36.5109 28.2825 38.1258 27.0596 40.2381C24.4383 44.7727 25.6143 50.4541 29.6107 53.6079C30.0027 53.9238 30.424 54.2105 30.8745 54.468L41.5996 60.6409L46.3917 57.8733L33.408 50.4015C32.8405 50.0621 32.5011 49.477 32.5011 48.8217V35.6625ZM45.5149 67.4294C45.6037 66.9175 45.7435 66.4252 45.9273 65.9619C46.8997 63.5066 49.1332 61.7878 51.738 61.7878H64.5852C64.7443 61.7878 64.8976 61.7878 65.0508 61.8137C65.5164 61.846 65.976 61.9365 66.4062 62.0851C66.4681 62.0964 66.5253 62.1175 66.586 62.1399C66.5948 62.1432 66.6036 62.1464 66.6125 62.1497H66.6302C66.7363 62.1884 66.8423 62.2337 66.9425 62.2854C67.4254 62.496 67.8753 62.7699 68.2888 63.0995C68.421 63.0204 68.5511 62.9381 68.6786 62.8526C70.0068 61.9808 71.1361 60.7989 71.9494 59.4063L71.9318 59.3888C74.4536 55.0707 73.5175 49.7052 69.9658 46.4754C69.4217 45.978 68.8132 45.5333 68.1578 45.153L63.7987 42.6253L58.8428 39.7583L57.4327 38.9391L56.4322 39.5125L54.3082 40.7237L52.6465 41.6775L49.5396 43.4503L48.7965 43.8833H48.7848L48.2991 44.1642L44.0454 46.6041L44.0278 52.9057L47.1874 54.743C47.5911 56.1122 48.4279 57.809 50.1247 59.3127L41.9682 63.9878C41.4007 64.3037 40.7044 64.3037 40.1368 63.9878L31.4128 58.9148L29.0548 57.5515C29.017 57.5279 28.9697 57.5014 28.922 57.4748C28.8517 57.4354 28.7807 57.3957 28.7388 57.3643C28.3117 59.7516 28.7447 62.2383 29.9617 64.3271H29.9442C32.4367 68.6511 37.5565 70.5059 42.1438 69.0665C42.2192 69.0456 42.2976 69.0186 42.3747 68.9921C42.4053 68.9816 42.4357 68.9712 42.4656 68.9612C43.0565 68.7564 43.6416 68.4931 44.2034 68.1772L45.5149 67.4294Z" fill="white"/>
</g>
<defs>
<filter id="filter0_d_74_1420" x="11" y="15" width="77" height="77" filterUnits="userSpaceOnUse" color-interpolation-filters="sRGB">
<feFlood flood-opacity="0" result="BackgroundImageFix"/>
<feColorMatrix in="SourceAlpha" type="matrix" values="0 0 0 0 0 0 0 0 0 0 0 0 0 0 0 0 0 0 127 0" result="hardAlpha"/>
<feOffset dy="4"/>
<feGaussianBlur stdDeviation="2"/>
<feComposite in2="hardAlpha" operator="out"/>
<feColorMatrix type="matrix" values="0 0 0 0 0.0235294 0 0 0 0 0.470588 0 0 0 0 0.380392 0 0 0 0.3 0"/>
<feBlend mode="normal" in2="BackgroundImageFix" result="effect1_dropShadow_74_1420"/>
<feBlend mode="normal" in="SourceGraphic" in2="effect1_dropShadow_74_1420" result="shape"/>
</filter>
<radialGradient id="paint0_radial_74_1420" cx="0" cy="0" r="1" gradientUnits="userSpaceOnUse" gradientTransform="translate(76.8306 -7.9096) rotate(126.501) scale(140.568)">
<stop stop-color="#EEE3F4"/>
<stop offset="1" stop-color="#E3E1EA"/>
</radialGradient>
<radialGradient id="paint1_radial_74_1420" cx="0" cy="0" r="1" gradientUnits="userSpaceOnUse" gradientTransform="translate(107.91 76.8306) rotate(-143.499) scale(140.568)">
<stop stop-color="#DBB3F0"/>
<stop offset="1" stop-color="#E3E1EA"/>
</radialGradient>
<linearGradient id="paint2_linear_74_1420" x1="97.0293" y1="49.2686" x2="-15.5205" y2="24.7414" gradientUnits="userSpaceOnUse">
<stop stop-color="#C0FFCE"/>
<stop offset="1" stop-color="#00CC83"/>
</linearGradient>
<linearGradient id="paint3_linear_74_1420" x1="37.9693" y1="75.8334" x2="-24.339" y2="42.8092" gradientUnits="userSpaceOnUse">
<stop stop-color="#00CC45"/>
<stop offset="1" stop-color="white"/>
</linearGradient>
<linearGradient id="paint4_linear_74_1420" x1="107.375" y1="89.1014" x2="0.978954" y2="42.3802" gradientUnits="userSpaceOnUse">
<stop stop-color="#00CC52"/>
<stop offset="1" stop-color="white"/>
</linearGradient>
<radialGradient id="paint5_radial_74_1420" cx="0" cy="0" r="1" gradientUnits="userSpaceOnUse" gradientTransform="translate(76.8306 -7.9096) rotate(126.501) scale(140.568)">
<stop stop-color="#DBB3F0"/>
<stop offset="1" stop-color="#E3E1EA"/>
</radialGradient>
<linearGradient id="paint6_linear_74_1420" x1="24" y1="78.5" x2="24.4902" y2="19.1489" gradientUnits="userSpaceOnUse">
<stop stop-color="#128663"/>
<stop offset="1" stop-color="#00A67E"/>
</linearGradient>
</defs>
</svg>
